<svg width="12" height="14" viewBox="0 0 12 14" fill="none" xmlns="http://www.w3.org/2000/svg">
<path d="M9.78125 11.875C9.72103 11.8755 9.66176 11.8573 9.60938 11.8222L3.07812 7.35344C3.02522 7.318 2.98122 7.26662 2.95061 7.20453C2.91999 7.14244 2.90386 7.07186 2.90386 7C2.90386 6.92813 2.91999 6.85756 2.95061 6.79547C2.98122 6.73338 3.02522 6.68199 3.07812 6.64656L9.60938 2.17781C9.66163 2.14215 9.72091 2.12338 9.78125 2.12338C9.84159 2.12338 9.90087 2.14215 9.95312 2.17781C10.0056 2.2136 10.0491 2.26514 10.0793 2.32721C10.1095 2.38927 10.1252 2.45966 10.125 2.53125V11.4687C10.125 11.5765 10.0888 11.6798 10.0243 11.756C9.95985 11.8322 9.87242 11.875 9.78125 11.875ZM3.9375 7L9.4375 10.7659V3.23406L3.9375 7ZM1.1875 2.125H1.875V11.875H1.1875V2.125Z" fill="black"/>
</svg>
