<svg width="10" height="10" viewBox="0 0 10 10" fill="none" xmlns="http://www.w3.org/2000/svg">
<path d="M1.21875 0.125003C1.27897 0.124511 1.33824 0.142723 1.39063 0.177814L7.92188 4.64656C7.97478 4.682 8.01878 4.73338 8.04939 4.79547C8.08001 4.85756 8.09614 4.92814 8.09614 5C8.09614 5.07187 8.08001 5.14244 8.04939 5.20453C8.01878 5.26662 7.97478 5.31801 7.92188 5.35344L1.39062 9.82219C1.33837 9.85785 1.27909 9.87662 1.21875 9.87662C1.15841 9.87662 1.09913 9.85785 1.04688 9.82219C0.994417 9.7864 0.950893 9.73486 0.920712 9.67279C0.890529 9.61073 0.87476 9.54034 0.875 9.46875L0.875 0.531253C0.875 0.423509 0.911216 0.320177 0.975681 0.24399C1.04015 0.167804 1.12758 0.125003 1.21875 0.125003ZM7.0625 5L1.5625 1.23407L1.5625 8.76594L7.0625 5ZM9.8125 9.875H9.125L9.125 0.125003H9.8125L9.8125 9.875Z" fill="black"/>
</svg>
