<svg width="16" height="12" viewBox="0 0 16 12" fill="none" xmlns="http://www.w3.org/2000/svg">
<path d="M8 3.8C7.42135 3.8 6.86639 4.03178 6.45722 4.44436C6.04805 4.85695 5.81818 5.41652 5.81818 6C5.81818 6.58348 6.04805 7.14306 6.45722 7.55564C6.86639 7.96822 7.42135 8.2 8 8.2C8.57865 8.2 9.13361 7.96822 9.54278 7.55564C9.95195 7.14306 10.1818 6.58348 10.1818 6C10.1818 5.41652 9.95195 4.85695 9.54278 4.44436C9.13361 4.03178 8.57865 3.8 8 3.8ZM8 9.66667C7.03558 9.66667 6.11065 9.28036 5.4287 8.59272C4.74675 7.90509 4.36364 6.97246 4.36364 6C4.36364 5.02754 4.74675 4.09491 5.4287 3.40728C6.11065 2.71964 7.03558 2.33333 8 2.33333C8.96442 2.33333 9.88935 2.71964 10.5713 3.40728C11.2532 4.09491 11.6364 5.02754 11.6364 6C11.6364 6.97246 11.2532 7.90509 10.5713 8.59272C9.88935 9.28036 8.96442 9.66667 8 9.66667ZM8 0.5C4.36364 0.5 1.25818 2.78067 0 6C1.25818 9.21933 4.36364 11.5 8 11.5C11.6364 11.5 14.7418 9.21933 16 6C14.7418 2.78067 11.6364 0.5 8 0.5Z" fill="#9E9E9E"/>
</svg>
